<svg xmlns="http://www.w3.org/2000/svg" width="92" height="32" fill="none">
  <path fill="#595653" d="M20.82 29.94h-.57v-.01l-.02-.07a5.09 5.09 0 0 0-.03-.14l-.01-.06a9.52 9.52 0 0 0-.05-.18v-.01a8.11 8.11 0 0 0-.06-.2l-.02-.05c0-.05-.02-.1-.04-.13l-.02-.07a6.5 6.5 0 0 0-.04-.13l-.02-.06-.06-.16-.01-.03a7.57 7.57 0 0 0-.07-.18l-.03-.06-.05-.12-.03-.07a7.38 7.38 0 0 0-.09-.18l-.06-.13-.02-.05a6.16 6.16 0 0 0-.09-.17l-.04-.07-.05-.1-.05-.07-.05-.1a2.27 2.27 0 0 0-.05-.07l-.06-.1-.06-.1-.08-.12a5.3 5.3 0 0 0-.05-.08l-.06-.08-.05-.08a.98.98 0 0 0-.06-.08l-.06-.08-.05-.08-.12-.15-.05-.06-.07-.09-.05-.06-.08-.09-.05-.06-.07-.08-.05-.05-.29-.31-.04-.04-.1-.1-.04-.04a7.28 7.28 0 0 0-.1-.08l-.03-.03-.34-.3-.03-.03a7.13 7.13 0 0 0-.11-.09l-.04-.03-.11-.09-.02-.01-.4-.29-.01-.01a9.71 9.71 0 0 0-.13-.09l-.03-.02-.13-.08-.45-.27-.15-.08-.02-.01a9.62 9.62 0 0 0-.79-.38h-.01a9.16 9.16 0 0 0-.22-.1h1.42c.23 0 .41-.24.41-.55 0-.31-.18-.56-.41-.56h-.42l.08-.22c.4-.23 1.1-.73 1.8-1.65v-.01l.16-.22v-.01l.16-.22.01-.03.07-.1v-.01l.08-.12.01-.03.06-.1.02-.02.07-.12.01-.03a6.4 6.4 0 0 0 .14-.27l.01-.03.06-.1.02-.04.06-.14.01-.02.05-.12.02-.04a7.04 7.04 0 0 0 .13-.3l.01-.04.05-.13.01-.03.06-.15.02-.05.04-.12.02-.05a12.61 12.61 0 0 0 .06-.2l.04-.13.02-.05a9.08 9.08 0 0 0 .1-.35l.01-.06.05-.18v-.05l.04-.14.02-.06a12.91 12.91 0 0 0 .07-.38l.02-.07c0-.06.02-.11.03-.17v-.03l.04-.2v-.07l.03-.16v-.06c.02-.06.03-.13.03-.2l.01-.07a8.25 8.25 0 0 0 .05-.45v-.06l.02-.18v-.07l.02-.23v-.05l.01-.2v-.06l.01-.25V12.07l-.01-.07-.01-.23v-.06l-.02-.28v-.07l-.03-.24v-.07l-.03-.3v-.05l-.03-.25a5.2 5.2 0 0 0-.04-.39l-.01-.04-.04-.27v-.09l-.05-.32C17.6-1.32 6.4.41 6.4.41l.36 2.3L0 9.47l.3 2.62 2.56 1.5c.11-.28.26-.54.44-.79 1.65-1.8 4.86-3.23 5.78-3.52l.29-.09a17.62 17.62 0 0 0-3.7 13.04c-.2.04-.36.27-.36.56 0 .3.18.56.41.56h1.42a9.4 9.4 0 0 0-5.5 5.77l-.02.07a6.1 6.1 0 0 0-.04.12l-.02.08a4.22 4.22 0 0 0-.05.2l-.03.1-.03.12-.03.13H.86a.85.85 0 0 0-.59.22.77.77 0 0 0-.24.55.74.74 0 0 0 .24.55.82.82 0 0 0 .59.22h19.96a.85.85 0 0 0 .59-.22.77.77 0 0 0 .24-.55.74.74 0 0 0-.24-.55.82.82 0 0 0-.59-.22ZM44.2 29.94h-.56v-.01l-.02-.07a4.72 4.72 0 0 0-.03-.14l-.02-.06a9.52 9.52 0 0 0-.04-.18v-.01a8.11 8.11 0 0 0-.06-.2l-.02-.05-.04-.13-.02-.07a6.5 6.5 0 0 0-.04-.13l-.03-.06-.05-.16-.02-.03a7.57 7.57 0 0 0-.1-.24l-.04-.12-.04-.07a7.38 7.38 0 0 0-.08-.18l-.06-.13-.03-.05a6.16 6.16 0 0 0-.08-.17l-.04-.07-.06-.1-.04-.07-.06-.1a2.27 2.27 0 0 0-.04-.07l-.06-.1-.06-.1-.08-.12a5.3 5.3 0 0 0-.05-.08l-.06-.08-.06-.08a.98.98 0 0 0-.05-.08l-.06-.08-.06-.08-.11-.15-.05-.06-.07-.09-.06-.06-.07-.09-.05-.06-.08-.08-.04-.05-.3-.31-.04-.04-.09-.1-.04-.04a6.7 6.7 0 0 0-.1-.08l-.03-.03-.34-.3-.04-.03a7.13 7.13 0 0 0-.1-.09l-.04-.03-.11-.09-.02-.01-.4-.29-.02-.01a9.08 9.08 0 0 0-.12-.09l-.03-.02-.13-.08h-.01l-.44-.27h-.01l-.14-.08-.02-.01a9.62 9.62 0 0 0-.79-.38h-.01a9.16 9.16 0 0 0-.22-.1h1.41c.23 0 .42-.24.42-.55 0-.31-.19-.56-.42-.56h-.42l.09-.22c.4-.23 1.1-.73 1.8-1.65v-.01l.15-.22.01-.01.15-.22.02-.03.07-.1v-.01l.07-.12.02-.03.06-.1.01-.02.07-.12.02-.03a6.4 6.4 0 0 0 .14-.27l.01-.03.05-.1.02-.04.07-.14.01-.02.05-.12.02-.04a6.48 6.48 0 0 0 .12-.3l.02-.04.05-.13.01-.03.06-.15.02-.05.04-.12.01-.05a12.61 12.61 0 0 0 .07-.2l.04-.13.02-.05.04-.17.02-.05.03-.13.02-.06.04-.18.02-.05.03-.14.01-.06.04-.18v-.04l.04-.16.01-.07.03-.17.01-.03.03-.2.01-.07.03-.16v-.06l.03-.2v-.07a8.25 8.25 0 0 0 .06-.45v-.06l.02-.18v-.07l.02-.23v-.25l.01-.06.01-.25V12.07l-.01-.07-.01-.23v-.06l-.03-.28v-.07l-.02-.24v-.07l-.03-.3v-.05c-.02-.08-.02-.17-.03-.25a5.2 5.2 0 0 0-.05-.39v-.04l-.04-.27-.01-.09-.05-.32C41-1.32 29.8.41 29.8.41l.35 2.3-6.76 6.77.3 2.62 2.56 1.5c.11-.28.26-.54.43-.79 1.66-1.8 4.87-3.23 5.79-3.52l.28-.09a17.62 17.62 0 0 0-3.7 13.04c-.2.04-.36.27-.36.56 0 .3.2.56.42.56h1.41a9.4 9.4 0 0 0-5.5 5.77l-.01.07-.04.12-.02.08a4.15 4.15 0 0 0-.06.2l-.03.1-.02.12-.03.13h-.56a.85.85 0 0 0-.6.22.77.77 0 0 0-.24.55.74.74 0 0 0 .25.55.82.82 0 0 0 .59.22H44.2a.85.85 0 0 0 .59-.22.77.77 0 0 0 .24-.55.74.74 0 0 0-.24-.55.82.82 0 0 0-.59-.22ZM67.6 29.94h-.57v-.01l-.02-.07a5.09 5.09 0 0 0-.03-.14l-.02-.06a9.52 9.52 0 0 0-.04-.18v-.01a8.11 8.11 0 0 0-.06-.2l-.02-.05-.04-.13-.02-.07a6.5 6.5 0 0 0-.05-.13l-.02-.06-.06-.16v-.03a7.57 7.57 0 0 0-.08-.18l-.03-.06-.05-.12-.03-.07a7.38 7.38 0 0 0-.08-.18l-.06-.13-.03-.05a6.16 6.16 0 0 0-.08-.17l-.04-.07-.06-.1-.04-.07-.06-.1a2.27 2.27 0 0 0-.04-.07l-.06-.1-.06-.1-.08-.12a5.3 5.3 0 0 0-.06-.08l-.05-.08-.06-.08a.98.98 0 0 0-.05-.08l-.06-.08-.06-.08-.11-.15-.06-.06-.07-.09-.05-.06-.07-.09-.05-.06-.08-.08-.05-.05-.29-.31-.04-.04-.09-.1-.04-.04a6.7 6.7 0 0 0-.1-.08l-.03-.03-.35-.3-.03-.03a7.13 7.13 0 0 0-.1-.09l-.04-.03-.12-.09-.02-.01-.4-.29v-.01a9.71 9.71 0 0 0-.14-.09l-.02-.02-.14-.08-.45-.27-.15-.08-.02-.01a9.62 9.62 0 0 0-.78-.38h-.02a9.16 9.16 0 0 0-.21-.1h1.41c.23 0 .42-.24.42-.55 0-.31-.19-.56-.42-.56h-.42l.09-.22c.4-.23 1.1-.73 1.8-1.65v-.01l.15-.22.01-.01.15-.22.02-.03.07-.1v-.01l.07-.12.02-.03.06-.1.01-.02.07-.12.02-.03a6.4 6.4 0 0 0 .13-.27l.02-.03.05-.1.02-.04.06-.14.02-.02.05-.12.02-.04a6.48 6.48 0 0 0 .12-.3l.02-.04.05-.13.01-.03.05-.15.02-.05.05-.12.01-.05a12.61 12.61 0 0 0 .07-.2l.04-.13.01-.05.05-.17.02-.05c0-.05.02-.09.03-.13l.02-.06.04-.18.01-.05.04-.14.01-.06a12.91 12.91 0 0 0 .08-.38l.01-.07.03-.17v-.03l.04-.2.01-.07.02-.16.01-.06.03-.2v-.07a8.25 8.25 0 0 0 .05-.45v-.06l.02-.18v-.07l.02-.23v-.05l.02-.2V13.52l.01-.22V12.34l-.01-.27V12l-.02-.23v-.06l-.02-.28v-.07l-.02-.24v-.07l-.03-.3v-.05l-.04-.25a5.2 5.2 0 0 0-.04-.39v-.04L66 9.76 66 9.66l-.05-.32C64.37-1.32 53.18.41 53.18.41l.36 2.3-6.77 6.77.3 2.62 2.56 1.5c.12-.28.27-.54.44-.79 1.66-1.8 4.86-3.23 5.78-3.52l.3-.09a17.62 17.62 0 0 0-3.7 13.04c-.21.04-.37.27-.37.56 0 .3.19.56.42.56h1.41a9.4 9.4 0 0 0-5.5 5.77l-.02.07-.03.12-.02.08a3.83 3.83 0 0 0-.06.2l-.03.1-.02.12-.03.13h-.57a.85.85 0 0 0-.58.22.77.77 0 0 0-.25.55.74.74 0 0 0 .25.55.82.82 0 0 0 .58.22H67.6a.85.85 0 0 0 .59-.22.77.77 0 0 0 .24-.55.74.74 0 0 0-.24-.55.82.82 0 0 0-.6-.22ZM90.98 29.94h-.56v-.01l-.02-.07a4.72 4.72 0 0 0-.04-.14l-.01-.06a9.52 9.52 0 0 0-.05-.18v-.01a8.11 8.11 0 0 0-.06-.2l-.01-.05-.04-.13-.03-.07a6.5 6.5 0 0 0-.04-.13l-.02-.06-.06-.16-.01-.03a7.57 7.57 0 0 0-.1-.24l-.05-.12-.03-.07a7.38 7.38 0 0 0-.09-.18c-.02-.05-.03-.09-.06-.13l-.02-.05a6.16 6.16 0 0 0-.09-.17l-.04-.07-.05-.1-.05-.07a9.18 9.18 0 0 0-.1-.17c-.02-.04-.03-.07-.06-.1l-.05-.1-.09-.12a5.3 5.3 0 0 0-.05-.08l-.05-.08-.06-.08a.98.98 0 0 0-.06-.08l-.06-.08-.05-.08-.12-.15-.05-.06-.07-.09-.05-.06-.07-.09-.06-.06-.07-.08-.05-.05-.29-.31-.04-.04-.1-.1-.04-.04a6.7 6.7 0 0 0-.1-.08l-.02-.03-.35-.3-.03-.03a7.13 7.13 0 0 0-.1-.09l-.05-.03-.1-.09-.03-.01-.4-.29-.01-.01a9.08 9.08 0 0 0-.13-.09l-.03-.02-.13-.08-.45-.27-.15-.08-.02-.01a9.62 9.62 0 0 0-.78-.38h-.02a9.16 9.16 0 0 0-.21-.1h1.41c.23 0 .42-.24.42-.55 0-.31-.19-.56-.42-.56h-.42l.08-.22c.4-.23 1.1-.73 1.8-1.65v-.01l.16-.22v-.01l.16-.22.01-.03.07-.1v-.01l.08-.12.01-.03.07-.1v-.02l.08-.12.01-.03a6.4 6.4 0 0 0 .14-.27l.02-.03.05-.1.02-.04.06-.14.01-.02.06-.12.02-.04a6.48 6.48 0 0 0 .12-.3l.02-.04.05-.13v-.03l.06-.15.02-.05.04-.12.02-.05a11.15 11.15 0 0 0 .07-.2l.04-.13.01-.05.05-.17.01-.05.04-.13a15.88 15.88 0 0 0 .06-.23l.01-.06.03-.14.02-.06a12.91 12.91 0 0 0 .08-.38v-.07l.04-.17v-.03l.04-.2v-.07c.02-.05.02-.1.03-.16v-.06l.04-.2v-.07a8.25 8.25 0 0 0 .05-.45v-.06l.02-.18v-.07a20.59 20.59 0 0 0 .03-.47v-.07l.02-.25V12.34l-.01-.27V12l-.02-.23v-.06l-.02-.28v-.07l-.02-.24-.01-.07-.03-.3v-.05l-.03-.25a5.2 5.2 0 0 0-.04-.39v-.04l-.04-.27-.02-.09-.04-.32C87.76-1.32 76.57.41 76.57.41l.36 2.3-6.77 6.77.3 2.62 2.56 1.5c.12-.28.26-.54.44-.79 1.65-1.8 4.86-3.23 5.78-3.52l.29-.09a17.62 17.62 0 0 0-3.7 13.04c-.2.04-.36.27-.36.56 0 .3.19.56.42.56h1.4a9.4 9.4 0 0 0-5.49 5.77l-.02.07-.04.12-.02.08a4.15 4.15 0 0 0-.05.2l-.03.1-.03.12-.03.13h-.56a.85.85 0 0 0-.59.22.77.77 0 0 0-.24.55.74.74 0 0 0 .24.55.82.82 0 0 0 .6.22h19.96a.85.85 0 0 0 .58-.22.77.77 0 0 0 .25-.55.74.74 0 0 0-.25-.55.82.82 0 0 0-.58-.22h-.01Z"/>
</svg>