<svg xmlns="http://www.w3.org/2000/svg" width="32" height="32" fill="none"><path fill="#E9DED4" d="M0 0h32v32H0z"/><path fill="#595653" d="M24.3 28.6h-.46l-.02-.07a4.96 4.96 0 0 0-.08-.33v-.02a7.65 7.65 0 0 0-.05-.17l-.01-.06-.04-.11-.01-.06a6.03 6.03 0 0 0-.04-.12l-.02-.05-.05-.14v-.03l-.07-.16-.02-.06-.04-.1-.03-.07a7.21 7.21 0 0 0-.07-.16l-.05-.12-.02-.04-.07-.15-.03-.06-.05-.1-.03-.06a11.66 11.66 0 0 0-.09-.15l-.05-.1-.05-.08-.06-.11a5.48 5.48 0 0 0-.05-.07l-.04-.07-.05-.08a.88.88 0 0 0-.05-.06l-.05-.08-.04-.07-.1-.13-.04-.06-.06-.08-.04-.06-.06-.07-.05-.06-.06-.07-.04-.05-.24-.27-.04-.04-.07-.08-.04-.04a6.03 6.03 0 0 0-.08-.08l-.02-.03a7 7 0 0 0-.29-.27l-.03-.02a6.78 6.78 0 0 0-.09-.08l-.03-.03-.1-.08-.34-.27h-.01a7.09 7.09 0 0 0-.1-.09l-.03-.01a7.9 7.9 0 0 0-.1-.08h-.02a7.67 7.67 0 0 0-.36-.24h-.01l-.12-.07-.02-.01a7.72 7.72 0 0 0-.65-.34h-.01a7.45 7.45 0 0 0-.18-.08h1.18c.19 0 .34-.23.34-.5 0-.29-.15-.51-.34-.51h-.35l.07-.2c.33-.2.91-.66 1.49-1.48l.13-.2.01-.01.13-.2v-.02l.07-.1.06-.11.01-.03.05-.1.01-.01.06-.11.01-.03a5.46 5.46 0 0 0 .12-.23l.01-.03.04-.1.02-.03.05-.12.01-.03.05-.1.01-.04a7.15 7.15 0 0 0 .1-.26l.02-.04.04-.11.01-.03.05-.14.01-.04.04-.11v-.04a11.24 11.24 0 0 0 .07-.2l.03-.1.01-.05a8.38 8.38 0 0 0 .08-.31l.02-.06.03-.15.01-.05.03-.13.01-.05a10.98 10.98 0 0 0 .07-.35v-.06l.03-.15v-.03a16.94 16.94 0 0 0 .04-.24l.02-.15v-.04c.02-.06.02-.13.03-.19v-.06l.02-.15v-.05l.03-.2v-.06l.01-.16v-.06l.02-.2v-.05l.01-.18v-.06l.01-.22v-1.32l-.01-.06-.01-.21v-.05l-.02-.26v-.06l-.02-.21v-.06l-.02-.27v-.05c-.02-.07-.02-.15-.03-.23a5.4 5.4 0 0 0-.04-.34v-.04l-.03-.25-.01-.07-.04-.3c-1.31-9.56-10.61-8-10.61-8l.3 2.05L7 10.23l.25 2.35 2.13 1.35c.1-.25.21-.48.36-.7 1.38-1.63 4.04-2.9 4.8-3.17l.25-.08c-3.66 4.85-3.24 10.4-3.08 11.71-.17.04-.3.25-.3.5 0 .28.16.5.35.5h1.17a8.12 8.12 0 0 0-4.52 5.03l-.02.05c0 .04-.02.07-.03.11 0 .02 0 .04-.02.06 0 .04-.02.07-.03.1l-.01.08a4.07 4.07 0 0 0-.05.18l-.02.1-.02.1-.03.11h-.47a.66.66 0 0 0-.48.2.7.7 0 0 0-.2.5.7.7 0 0 0 .2.5.68.68 0 0 0 .48.19h16.6a.66.66 0 0 0 .49-.2.7.7 0 0 0 .2-.5.7.7 0 0 0-.2-.49.67.67 0 0 0-.5-.2Z"/></svg>